<?xml version="1.0" encoding="UTF-8"?>
<svg id="Layer_1" xmlns="http://www.w3.org/2000/svg" version="1.1" viewBox="0 0 1200 1200">
  <!-- Generator: Adobe Illustrator 29.8.2, SVG Export Plug-In . SVG Version: 2.1.1 Build 3)  -->
  <defs>
    <style>
      .st0 {
        fill: #8dc63f;
      }

      .st0, .st1, .st2, .st3, .st4, .st5, .st6, .st7 {
        fill-rule: evenodd;
      }

      .st1 {
        fill: #ffcb05;
      }

      .st2 {
        fill: #71523a;
      }

      .st8 {
        fill: #fff;
      }

      .st9 {
        fill: #ed1c24;
      }

      .st3 {
        fill: #ef4130;
      }

      .st4 {
        fill: #414042;
      }

      .st5 {
        fill: #2484c6;
      }

      .st10 {
        fill: #002659;
      }

      .st6 {
        fill: #254f50;
      }

      .st7 {
        fill: #f7941d;
      }
    </style>
  </defs>
  <circle class="st8" cx="600" cy="600" r="500"/>
  <g>
    <g>
      <path class="st1" d="M738.93,248.28s-6.5,32.08-39.68,68.67c-21.34,23.52-54.77,49.14-76.41,63.4-5.72,3.77-11.37,7.43-20.9,7.43s-14.94-3.54-19.27-6.36c-21.55-14.02-56.16-40.34-78.04-64.47-33.18-36.59-39.68-68.67-39.68-68.67,0,0-3.76,37.32,33.78,82.88,22.53,27.34,53.19,55.7,69.47,93.46,13.65,31.68,33.49,159.35,33.75,157.71.25,1.64,20.1-126.03,33.75-157.71,16.27-37.77,46.94-66.13,69.46-93.46,37.54-45.56,33.78-82.88,33.78-82.88Z"/>
      <path class="st1" d="M627.9,356.83c0,13.77-11.16,24.93-24.93,24.93s-24.93-11.16-24.93-24.93,11.16-24.93,24.93-24.93,24.93,11.16,24.93,24.93Z"/>
    </g>
    <g>
      <path class="st7" d="M451.12,253.43s18.09,27.28,20.5,76.62c1.55,31.72-3.99,73.48-9.2,98.86-1.38,6.72-2.79,13.29-9.53,20.03-6.74,6.74-13.07,8.06-18.12,9.13-25.16,5.32-68.24,11.18-100.77,9.6-49.34-2.41-76.62-20.5-76.62-20.5,0,0,23.73,29.05,82.49,34.72,35.26,3.4,77,1.77,115.21,16.97,32.05,12.75,136.36,88.99,135.38,87.65,1.34.98-74.9-103.33-87.65-135.38-15.2-38.21-13.57-79.95-16.97-115.21-5.67-58.76-34.72-82.5-34.72-82.5Z"/>
      <path class="st7" d="M449.37,408.7c9.73,9.73,9.73,25.52,0,35.25-9.73,9.73-25.52,9.73-35.25,0-9.74-9.74-9.73-25.52,0-35.25,9.74-9.74,25.52-9.74,35.25,0Z"/>
    </g>
    <g>
      <path class="st3" d="M251.25,460.59s32.08,6.5,68.67,39.68c23.52,21.34,49.14,54.77,63.4,76.41,3.77,5.72,7.43,11.37,7.43,20.9,0,9.53-3.54,14.94-6.36,19.27-14.02,21.55-40.34,56.16-64.47,78.04-36.59,33.18-68.67,39.68-68.67,39.68,0,0,37.32,3.76,82.88-33.78,27.34-22.53,55.7-53.19,93.46-69.46,31.68-13.65,159.35-33.49,157.71-33.75,1.64-.25-126.03-20.1-157.71-33.75-37.77-16.27-66.13-46.94-93.47-69.46-45.56-37.54-82.88-33.78-82.88-33.78Z"/>
      <path class="st3" d="M359.8,571.62c13.77,0,24.93,11.16,24.93,24.93,0,13.77-11.16,24.93-24.93,24.93s-24.93-11.16-24.93-24.93c0-13.77,11.16-24.93,24.93-24.93Z"/>
    </g>
    <g>
      <path class="st2" d="M256.4,748.41s27.28-18.09,76.62-20.5c31.72-1.55,73.47,3.99,98.86,9.2,6.72,1.38,13.29,2.78,20.03,9.53,6.74,6.74,8.06,13.07,9.13,18.12,5.32,25.16,11.18,68.24,9.6,100.77-2.41,49.34-20.5,76.62-20.5,76.62,0,0,29.05-23.73,34.72-82.5,3.4-35.26,1.77-77,16.97-115.21,12.75-32.05,88.99-136.36,87.65-135.38.98-1.34-103.33,74.91-135.38,87.65-38.21,15.2-79.95,13.57-115.21,16.97-58.76,5.67-82.5,34.72-82.5,34.72Z"/>
      <path class="st2" d="M411.67,750.15c9.74-9.74,25.52-9.73,35.25,0,9.73,9.73,9.73,25.52,0,35.25-9.73,9.73-25.52,9.73-35.25,0-9.73-9.74-9.74-25.52,0-35.25Z"/>
    </g>
    <g>
      <path class="st4" d="M463.56,948.28s6.5-32.08,39.68-68.67c21.34-23.52,54.77-49.14,76.41-63.4,5.72-3.77,11.37-7.43,20.9-7.43,9.53,0,14.94,3.54,19.27,6.36,21.55,14.03,56.16,40.34,78.04,64.47,33.18,36.59,39.68,68.67,39.68,68.67,0,0,3.76-37.32-33.78-82.88-22.53-27.34-53.19-55.7-69.47-93.46-13.65-31.68-33.49-159.35-33.75-157.71-.25-1.64-20.1,126.03-33.75,157.71-16.27,37.77-46.94,66.13-69.46,93.47-37.54,45.56-33.78,82.88-33.78,82.88Z"/>
      <path class="st4" d="M574.59,839.72c0-13.77,11.16-24.93,24.93-24.93,13.77,0,24.93,11.16,24.93,24.93s-11.16,24.93-24.93,24.93-24.93-11.16-24.93-24.93Z"/>
    </g>
    <g>
      <path class="st6" d="M751.38,943.12s-18.09-27.28-20.5-76.62c-1.55-31.72,3.99-73.48,9.2-98.86,1.38-6.72,2.78-13.29,9.53-20.03,6.74-6.74,13.07-8.06,18.12-9.13,25.16-5.32,68.24-11.18,100.77-9.6,49.34,2.41,76.62,20.5,76.62,20.5,0,0-23.73-29.05-82.49-34.72-35.26-3.4-77-1.77-115.21-16.97-32.05-12.75-136.36-88.99-135.38-87.65-1.33-.98,74.91,103.33,87.65,135.38,15.2,38.21,13.57,79.95,16.97,115.21,5.67,58.76,34.72,82.5,34.72,82.5Z"/>
      <path class="st6" d="M753.12,787.85c-9.73-9.73-9.73-25.52,0-35.25,9.73-9.73,25.52-9.73,35.25,0,9.74,9.74,9.74,25.52,0,35.25-9.74,9.73-25.52,9.73-35.25,0Z"/>
    </g>
    <g>
      <path class="st5" d="M951.25,735.96s-32.08-6.5-68.67-39.68c-23.52-21.34-49.14-54.77-63.4-76.41-3.77-5.72-7.43-11.37-7.43-20.9,0-9.53,3.54-14.94,6.36-19.27,14.02-21.55,40.34-56.16,64.47-78.04,36.59-33.18,68.67-39.68,68.67-39.68,0,0-37.32-3.76-82.89,33.78-27.34,22.53-55.7,53.19-93.46,69.47-31.68,13.65-159.35,33.49-157.71,33.75-1.64.25,126.03,20.1,157.71,33.75,37.77,16.27,66.13,46.94,93.46,69.46,45.56,37.54,82.88,33.78,82.88,33.78Z"/>
      <path class="st5" d="M842.69,624.93c-13.77,0-24.93-11.16-24.93-24.93,0-13.77,11.16-24.93,24.93-24.93s24.93,11.16,24.93,24.93-11.16,24.93-24.93,24.93Z"/>
    </g>
    <g>
      <path class="st0" d="M946.09,448.15s-27.28,18.09-76.62,20.5c-31.72,1.55-73.48-3.99-98.86-9.2-6.72-1.38-13.29-2.78-20.03-9.53-6.74-6.74-8.06-13.07-9.13-18.12-5.32-25.16-11.18-68.24-9.6-100.77,2.41-49.33,20.5-76.62,20.5-76.62,0,0-29.05,23.73-34.72,82.49-3.4,35.26-1.77,77-16.97,115.21-12.75,32.05-88.99,136.36-87.65,135.38-.98,1.33,103.33-74.91,135.38-87.65,38.21-15.2,79.95-13.57,115.21-16.97,58.76-5.67,82.5-34.72,82.5-34.72Z"/>
      <path class="st0" d="M790.82,446.4c-9.74,9.73-25.52,9.73-35.25,0-9.73-9.73-9.73-25.52,0-35.25,9.74-9.73,25.52-9.73,35.25,0,9.73,9.73,9.73,25.52,0,35.25Z"/>
    </g>
  </g>
  <path class="st10" d="M600,110c-270.62,0-490,219.38-490,490s219.38,490,490,490,490-219.38,490-490S870.62,110,600,110ZM600,945c-190.54,0-345-154.46-345-345s154.46-345,345-345,345,154.46,345,345-154.46,345-345,345Z"/>
  <g>
    <polygon class="st8" points="335.91 252.72 328.01 243.56 288.11 277.92 296.01 287.09 310.36 274.73 343.29 312.97 354.49 303.33 321.56 265.08 335.91 252.72"/>
    <path class="st8" d="M409.39,228.68c-3.58-5.88-7.73-10.19-12.45-12.92s-9.65-3.99-14.79-3.79c-5.13.21-10.09,1.76-14.88,4.67-4.81,2.92-8.48,6.62-11.03,11.08s-3.7,9.42-3.46,14.88c.24,5.46,2.15,11.13,5.73,17.01,3.55,5.84,7.69,10.12,12.43,12.84,4.74,2.72,9.67,3.98,14.8,3.77,5.13-.21,10.1-1.77,14.91-4.7,4.78-2.91,8.45-6.59,11-11.04s3.7-9.4,3.45-14.85c-.25-5.45-2.16-11.1-5.72-16.97ZM399.44,254.49c-1.11,2.38-2.96,4.35-5.54,5.92-2.61,1.59-5.23,2.32-7.85,2.2-2.63-.12-5.18-1.08-7.65-2.89-2.47-1.8-4.78-4.47-6.92-7.98-2.15-3.54-3.47-6.83-3.94-9.87s-.16-5.75.94-8.14c1.1-2.39,2.96-4.38,5.56-5.96,2.58-1.57,5.19-2.3,7.81-2.19,2.62.11,5.18,1.08,7.67,2.91,2.49,1.83,4.81,4.51,6.96,8.05,2.14,3.52,3.44,6.79,3.92,9.83.47,3.04.15,5.75-.96,8.13Z"/>
    <path class="st8" d="M476.97,198.23l-25.06,9.59,3.89,10.16,11.67-4.47c.72,2.04.95,3.99.64,5.85-.33,1.97-1.23,3.73-2.72,5.29-1.49,1.56-3.55,2.84-6.19,3.85-2.93,1.12-5.71,1.38-8.34.76-2.63-.61-5.01-2.04-7.15-4.28-2.13-2.24-3.92-5.26-5.38-9.05-1.44-3.76-2.1-7.19-1.98-10.28.12-3.09.97-5.73,2.54-7.92,1.57-2.19,3.77-3.83,6.6-4.91,1.46-.56,2.86-.9,4.18-1.01,1.32-.12,2.58-.02,3.77.29,1.2.31,2.3.81,3.3,1.52,1.01.71,1.91,1.6,2.71,2.67l14-5.36c-1.48-2.76-3.38-5.08-5.7-6.97-2.32-1.88-4.96-3.28-7.9-4.19-2.94-.91-6.04-1.3-9.3-1.16-3.26.14-6.58.85-9.95,2.14-5.2,1.99-9.45,4.97-12.74,8.95-3.29,3.97-5.33,8.68-6.11,14.12-.78,5.44.05,11.35,2.49,17.73,2.35,6.14,5.57,11,9.64,14.56,4.08,3.56,8.68,5.75,13.82,6.56,5.13.81,10.47.15,16.02-1.97,4.99-1.91,9.05-4.6,12.17-8.08,3.12-3.47,5.07-7.49,5.84-12.06.77-4.57.16-9.45-1.83-14.65l-2.94-7.69Z"/>
    <polygon class="st8" points="513.63 212.27 510.9 198.94 536.69 193.67 534.32 182.07 508.53 187.34 505.94 174.67 533.95 168.94 531.53 157.09 488.99 165.79 501.53 227.09 544.02 218.4 541.6 206.55 513.63 212.27"/>
    <polygon class="st8" points="604.75 151.69 552.15 154.19 552.72 166.27 571.64 165.37 574.04 215.79 588.8 215.09 586.41 164.67 605.32 163.77 604.75 151.69"/>
    <polygon class="st8" points="663.5 181.55 638.69 178.56 641.63 154.17 626.92 152.4 619.43 214.52 634.15 216.29 637.25 190.57 662.05 193.56 658.95 219.28 673.63 221.05 681.11 158.93 666.44 157.16 663.5 181.55"/>
    <polygon class="st8" points="715.5 179.97 742.96 187.95 746.34 176.34 704.64 164.22 687.18 224.3 728.83 236.41 732.21 224.8 704.79 216.82 708.58 203.76 733.87 211.11 737.17 199.74 711.89 192.39 715.5 179.97"/>
    <path class="st8" d="M805.07,212.45c-.35-3.59-1.71-6.88-4.09-9.86-2.38-2.98-5.7-5.46-9.96-7.46l-23.21-10.84-26.48,56.69,13.43,6.27,9.12-19.52,7.29,3.4,1.29,24.38,14.72,6.88-1.71-27.16s.02,0,.03,0c3.81.05,7.21-.91,10.19-2.86,2.98-1.96,5.38-4.88,7.2-8.76,1.8-3.85,2.53-7.58,2.18-11.17ZM788.97,217.12c-.82,1.75-1.85,3.03-3.11,3.83s-2.72,1.16-4.39,1.06c-1.67-.1-3.56-.64-5.66-1.62l-6.96-3.25,7.32-15.68,6.92,3.23c2.1.98,3.73,2.1,4.87,3.36,1.14,1.26,1.8,2.64,1.98,4.15.18,1.5-.15,3.15-.98,4.92Z"/>
    <path class="st8" d="M812.88,261.55c-1.9-1.19-3.89-1.56-5.98-1.11-2.09.45-3.72,1.62-4.9,3.49-1.19,1.9-1.55,3.88-1.05,5.96.49,2.08,1.68,3.72,3.58,4.91,1.89,1.19,3.89,1.56,5.98,1.11s3.73-1.63,4.93-3.52c1.18-1.87,1.52-3.85,1.03-5.93-.49-2.08-1.69-3.72-3.58-4.91Z"/>
    <path class="st8" d="M843.06,282.57c-1.78-1.36-3.73-1.91-5.85-1.65-2.12.26-3.86,1.27-5.2,3.02-1.36,1.78-1.9,3.72-1.6,5.84s1.34,3.86,3.12,5.22c1.78,1.36,3.73,1.91,5.85,1.65,2.12-.26,3.86-1.28,5.23-3.06,1.35-1.75,1.87-3.69,1.57-5.81-.3-2.12-1.34-3.86-3.11-5.22Z"/>
    <path class="st8" d="M873.78,311.71c-.11-2.14-.98-3.96-2.62-5.48-1.65-1.52-3.54-2.25-5.67-2.18-2.14.06-3.96.91-5.46,2.53-1.52,1.65-2.23,3.54-2.12,5.67.11,2.13.98,3.96,2.63,5.48,1.64,1.52,3.54,2.25,5.67,2.18,2.14-.07,3.96-.92,5.48-2.57,1.5-1.62,2.2-3.5,2.09-5.64Z"/>
  </g>
  <g>
    <path class="st8" d="M221.33,683.69l-28.39-3.37c-4.7-.49-9.6-.89-14.7-1.19-2.93-.17-5.98-.34-9.1-.5,2.85-1.26,5.63-2.51,8.32-3.73,4.68-2.14,9.13-4.28,13.35-6.44l25.36-13.41-2.96-16.41-57.76,32.26,3.52,19.51,65.29,9.48-2.92-16.2Z"/>
    <polygon class="st8" points="208.73 731.06 220.93 726.76 230.44 753.73 241.85 749.71 227.41 708.76 168.4 729.57 182.83 770.47 194.23 766.45 184.73 739.52 197.57 735 206.32 759.83 217.49 755.89 208.73 731.06"/>
    <path class="st8" d="M251.95,850.65l-7.94-12.72c-1.44.6-2.86.93-4.26.98-1.4.05-2.76-.14-4.05-.59-1.3-.44-2.51-1.14-3.63-2.09-1.12-.95-2.13-2.14-3.02-3.56-1.59-2.54-2.36-5.12-2.31-7.74s.95-5.2,2.72-7.74c1.77-2.54,4.42-4.91,7.96-7.12,3.44-2.15,6.69-3.47,9.73-3.97,3.04-.5,5.79-.2,8.25.89,2.46,1.09,4.5,2.92,6.12,5.51.89,1.42,1.51,2.85,1.88,4.27.36,1.42.45,2.81.27,4.16-.18,1.35-.61,2.63-1.29,3.85s-1.6,2.34-2.77,3.37l7.94,12.72c2.85-2.31,5.08-4.86,6.68-7.66,1.6-2.8,2.59-5.75,2.96-8.85.37-3.1.15-6.27-.65-9.49-.81-3.22-2.2-6.42-4.17-9.57-2.94-4.7-6.65-8.29-11.13-10.77-4.49-2.48-9.45-3.56-14.9-3.25s-11.09,2.3-16.93,5.94c-5.79,3.62-10.04,7.79-12.73,12.52-2.69,4.73-3.91,9.65-3.66,14.76.25,5.11,1.87,10.05,4.85,14.82,2.25,3.61,4.81,6.47,7.68,8.57,2.86,2.1,5.86,3.56,8.99,4.36,3.13.8,6.18,1.05,9.17.74,2.99-.31,5.74-1.09,8.27-2.34Z"/>
    <path class="st8" d="M302.94,848.94l-60.69,25.83,10.91,12.33,12.68-5.76,13.8,15.59-7.16,11.99,11.02,12.45,32.61-57.56-13.16-14.88ZM287.19,884.3l-1.45,2.42-9.1-10.28,2.56-1.16c4.27-2.02,8.72-4.29,13.34-6.82,2.63-1.43,5.32-2.9,8.06-4.4-1.78,2.56-3.52,5.09-5.21,7.57-2.98,4.38-5.72,8.6-8.21,12.68Z"/>
    <path class="st8" d="M352.55,932.26c-1.13,1.42-2.47,3.21-4,5.37-1.54,2.16-3.11,4.39-4.71,6.69-.58.84-1.14,1.64-1.68,2.43.42-1.35.79-2.63,1.12-3.85.68-2.57,1.23-4.97,1.63-7.21s.75-4.44,1.04-6.6l3.92-32.99-12.75-10.14-38.94,48.97,11.9,9.46,16.13-20.28c.98-1.23,2.16-2.8,3.54-4.72,1.38-1.92,2.89-4.05,4.52-6.39.84-1.21,1.69-2.43,2.56-3.68-.42,1.74-.8,3.35-1.16,4.82-.64,2.67-1.17,5.2-1.58,7.59-.42,2.39-.8,4.96-1.17,7.71l-3.6,30.24,12.79,10.17,38.94-48.97-11.9-9.46-16.57,20.84Z"/>
    <polygon class="st8" points="503.82 1000.91 479.7 994.37 486.14 970.66 471.83 966.78 455.44 1027.16 469.75 1031.04 476.54 1006.04 500.65 1012.59 493.86 1037.59 508.12 1041.46 524.52 981.08 510.25 977.21 503.82 1000.91"/>
    <path class="st8" d="M554.22,984.9l-26.45,60.42,16.39,1.49,5.28-12.89,20.73,1.88,3.01,13.64,16.56,1.5-15.75-64.26-19.78-1.8ZM553.94,1022.95l1.07-2.6c1.72-4.4,3.4-9.1,5.03-14.11.93-2.84,1.88-5.76,2.85-8.73.46,3.08.93,6.11,1.4,9.08.83,5.23,1.74,10.19,2.72,14.86l.61,2.75-13.68-1.24Z"/>
    <path class="st8" d="M645.28,985.03l2.2,26.53c.15,1.81.4,4.03.76,6.66.36,2.62.74,5.33,1.16,8.1.15,1.01.3,1.98.44,2.92-.62-1.27-1.22-2.46-1.82-3.57-1.26-2.34-2.51-4.46-3.75-6.37-1.24-1.91-2.5-3.75-3.77-5.52l-19.74-26.72-16.24,1.34,5.16,62.35,15.15-1.25-2.14-25.82c-.13-1.56-.35-3.52-.65-5.87-.31-2.35-.67-4.93-1.08-7.75-.21-1.45-.43-2.93-.66-4.43.89,1.55,1.71,2.99,2.46,4.3,1.36,2.39,2.71,4.59,4.05,6.62,1.33,2.03,2.81,4.16,4.43,6.42l18.08,24.5,16.28-1.35-5.16-62.35-15.15,1.25Z"/>
    <path class="st8" d="M733.75,994.99l-25.95,6.82,2.76,10.52,12.08-3.18c.5,2.1.51,4.07,0,5.88-.54,1.92-1.63,3.58-3.28,4.96-1.65,1.39-3.84,2.44-6.57,3.16-3.03.8-5.82.75-8.37-.14-2.55-.89-4.76-2.57-6.64-5.03s-3.33-5.65-4.36-9.58c-1.02-3.9-1.31-7.38-.85-10.43.46-3.06,1.58-5.59,3.39-7.6,1.8-2.01,4.17-3.4,7.09-4.16,1.52-.4,2.94-.58,4.26-.55s2.56.26,3.72.69,2.2,1.06,3.12,1.87c.92.81,1.72,1.8,2.4,2.95l14.5-3.81c-1.17-2.91-2.81-5.42-4.91-7.54-2.11-2.12-4.57-3.8-7.4-5.02-2.83-1.22-5.87-1.95-9.12-2.16-3.25-.21-6.63.14-10.12,1.05-5.39,1.42-9.93,3.92-13.63,7.51-3.7,3.59-6.24,8.05-7.6,13.37-1.37,5.32-1.18,11.29.56,17.89,1.67,6.36,4.34,11.54,8.01,15.52,3.67,3.99,8.01,6.66,13.03,8.02,5.02,1.36,10.4,1.28,16.14-.22,5.17-1.36,9.5-3.59,12.98-6.71,3.48-3.11,5.85-6.9,7.11-11.36s1.18-9.38-.23-14.77l-2.09-7.96Z"/>
    <polygon class="st8" points="770.78 1003.41 765.28 990.97 789.37 980.33 784.58 969.5 760.5 980.13 755.27 968.3 781.43 956.75 776.55 945.69 736.83 963.23 762.11 1020.46 801.79 1002.94 796.9 991.88 770.78 1003.41"/>
    <path class="st8" d="M918.3,873.73c-4.89-4.85-9.96-8.03-15.2-9.54-5.24-1.51-10.33-1.55-15.26-.11-4.93,1.44-9.37,4.14-13.31,8.12-3.96,4-6.64,8.47-8.04,13.41-1.39,4.94-1.32,10.04.23,15.28,1.55,5.24,4.76,10.28,9.65,15.13,4.85,4.81,9.9,7.97,15.15,9.47,5.25,1.5,10.34,1.54,15.28.1,4.93-1.44,9.38-4.15,13.34-8.15,3.94-3.98,6.62-8.43,8.02-13.37s1.33-10.02-.23-15.25-4.77-10.26-9.64-15.09ZM914.85,901.18c-.5,2.58-1.82,4.94-3.95,7.08-2.15,2.17-4.51,3.51-7.09,4.02-2.58.51-5.29.2-8.12-.96s-5.71-3.18-8.64-6.08c-2.94-2.92-5.01-5.79-6.2-8.63-1.19-2.83-1.54-5.55-1.04-8.13.49-2.59,1.82-4.96,3.96-7.13,2.13-2.15,4.48-3.48,7.05-4.01,2.57-.53,5.29-.2,8.14.98s5.75,3.22,8.7,6.14c2.92,2.9,4.98,5.76,6.17,8.6,1.19,2.84,1.53,5.54,1.03,8.12Z"/>
    <path class="st8" d="M973.23,827.35c-1.46-2.62-3.27-4.85-5.4-6.68l-8.57,12.3c1.12,1.09,1.98,2.27,2.58,3.54.6,1.27.95,2.59,1.05,3.96.1,1.37-.06,2.76-.49,4.16-.43,1.41-1.13,2.8-2.09,4.17-1.71,2.46-3.78,4.18-6.21,5.17s-5.16,1.17-8.18.54-6.25-2.13-9.68-4.51c-3.33-2.32-5.82-4.78-7.47-7.38-1.65-2.6-2.46-5.25-2.43-7.94.03-2.69.92-5.29,2.66-7.79.96-1.38,2.02-2.51,3.19-3.41,1.17-.89,2.41-1.52,3.72-1.89,1.31-.37,2.66-.48,4.04-.33,1.38.14,2.78.55,4.19,1.23l8.57-12.3c-3.24-1.71-6.46-2.75-9.67-3.13-3.2-.37-6.31-.12-9.31.76-3,.88-5.82,2.32-8.47,4.33-2.65,2.01-5.03,4.55-7.16,7.6-3.17,4.55-5.01,9.37-5.53,14.47s.44,10.09,2.88,14.97c2.43,4.88,6.47,9.29,12.12,13.23,5.61,3.9,11.11,6.16,16.52,6.77,5.41.61,10.41-.2,15.01-2.44,4.6-2.24,8.5-5.67,11.72-10.29,2.43-3.49,4.05-6.97,4.86-10.43.81-3.46.97-6.79.48-9.98-.49-3.19-1.47-6.1-2.93-8.72Z"/>
    <rect class="st8" x="963.19" y="763.78" width="14.82" height="62.57" transform="translate(-185.47 1282.6) rotate(-62.19)"/>
    <polygon class="st8" points="1005.11 766.72 992.45 761.73 1002.12 737.23 991.1 732.89 981.44 757.38 969.41 752.63 979.9 726.03 968.65 721.59 952.72 761.98 1010.92 784.95 1026.84 744.6 1015.59 740.16 1005.11 766.72"/>
    <polygon class="st8" points="995.35 663.81 983.56 661.12 971.82 712.45 983.61 715.15 987.83 696.69 1037.03 707.94 1040.33 693.53 991.12 682.28 995.35 663.81"/>
    <path class="st8" d="M1027.02,618.05l-38.48-25.04-1.02,17.27,18.6,10.48c1.76,1.03,3.56,1.96,5.39,2.78.76.34,1.59.69,2.45,1.04-.89.26-1.74.52-2.52.79-1.92.64-3.83,1.39-5.73,2.23l-19.74,8.67-1.03,17.35,41.2-20.86,22.64,1.34.87-14.71-22.64-1.34Z"/>
    <g>
      <path class="st9" d="M186.4,631.99c-4.61-1.04-9.43-2.01-14.46-2.9-2.89-.52-5.89-1.04-8.98-1.56,2.98-.92,5.89-1.83,8.7-2.73,4.9-1.58,9.57-3.19,14.01-4.83l26.76-10.34-1.02-16.64-61.14,25.27,1.21,19.78,64.7,17.02-1.98-16.39-27.79-6.67Z"/>
      <path class="st9" d="M451.77,964.21c-1.38-2.81-3.28-5.34-5.71-7.61-2.43-2.27-5.33-4.19-8.71-5.77-5.02-2.35-10.09-3.34-15.2-2.99-5.11.36-9.87,2.15-14.27,5.38-4.4,3.23-8.06,7.96-10.98,14.2-2.9,6.19-4.18,12-3.87,17.43.32,5.43,1.97,10.22,4.96,14.37,2.99,4.15,7.03,7.42,12.13,9.8,3.85,1.8,7.56,2.81,11.11,3.02,3.55.21,6.85-.2,9.92-1.23,3.06-1.03,5.76-2.48,8.1-4.37,2.34-1.89,4.22-4.04,5.67-6.46l-13.58-6.35c-.88,1.29-1.9,2.33-3.05,3.14-1.15.81-2.39,1.38-3.72,1.71-1.33.34-2.73.41-4.18.22-1.46-.19-2.95-.64-4.47-1.35-2.71-1.27-4.76-3.02-6.15-5.24-1.39-2.22-2.03-4.88-1.93-7.97.1-3.09,1.04-6.52,2.8-10.3,1.72-3.68,3.72-6.55,6-8.62,2.28-2.07,4.75-3.32,7.41-3.74,2.66-.43,5.37,0,8.13,1.3,1.52.71,2.82,1.57,3.9,2.57,1.08,1,1.91,2.11,2.49,3.34.58,1.23.92,2.54,1.01,3.93s-.07,2.83-.5,4.33l13.58,6.35c1.14-3.49,1.62-6.84,1.44-10.06-.18-3.22-.95-6.23-2.33-9.04Z"/>
      <path class="st9" d="M873.12,935.5c-1.46-2.02-3.12-3.6-5-4.73-1.87-1.13-3.92-1.85-6.15-2.13-2.23-.29-4.63-.19-7.19.3s-5.26,1.36-8.09,2.6l-5.13,2.15c-1.74.74-3.36,1.28-4.83,1.63-1.48.34-2.78.38-3.91.11-1.13-.27-2.07-.93-2.82-1.97-.69-.95-1.03-2-1.01-3.13.01-1.13.41-2.3,1.2-3.51.79-1.21,1.97-2.38,3.56-3.53,2.41-1.74,4.65-2.58,6.72-2.53,2.08.05,3.86.94,5.34,2.67l11.54-8.33c-2.31-3.1-5.11-5.26-8.41-6.49-3.3-1.22-6.87-1.46-10.71-.71-3.84.75-7.73,2.55-11.65,5.38-3.84,2.77-6.76,5.88-8.78,9.32-2.02,3.44-3.03,6.96-3.03,10.55,0,3.59,1.13,6.95,3.4,10.08,2.75,3.81,6.2,5.95,10.33,6.42,4.14.47,8.75-.38,13.86-2.55l6.29-2.62c2.16-.94,4.02-1.58,5.6-1.92,1.58-.35,2.92-.4,4.01-.15,1.09.25,1.99.86,2.7,1.83.79,1.09,1.15,2.28,1.1,3.56-.06,1.28-.52,2.59-1.4,3.91-.88,1.32-2.14,2.58-3.8,3.78-1.84,1.33-3.64,2.21-5.42,2.64-1.77.44-3.46.38-5.04-.17-1.59-.55-3.03-1.6-4.32-3.15l-11.54,8.33c2.89,3.85,6.14,6.45,9.75,7.77,3.62,1.33,7.45,1.49,11.5.5s8.19-3.01,12.41-6.06c4.2-3.03,7.35-6.24,9.45-9.62,2.1-3.38,3.12-6.8,3.05-10.26-.06-3.46-1.25-6.79-3.56-9.99Z"/>
    </g>
  </g>
  <g>
    <path class="st8" d="M245.98,438.44l-15.8-7.97c-2.24-1.13-3.4-3.65-2.8-6.09l4.22-17.19c.33-1.34-1.32-2.26-2.29-1.28l-12.47,12.56c-1.77,1.78-4.53,2.1-6.66.78l-15.04-9.32c-1.17-.73-2.56.55-1.93,1.78l8.09,15.74c1.15,2.23.6,4.95-1.31,6.57l-13.51,11.42c-1.05.89-.27,2.6,1.1,2.38l17.47-2.83c2.47-.4,4.9.96,5.85,3.28l6.69,16.38c.52,1.28,2.39,1.06,2.6-.31l2.7-17.49c.38-2.48,2.42-4.36,4.92-4.55l17.65-1.3c1.38-.1,1.74-1.95.51-2.57Z"/>
    <path class="st8" d="M1013.25,438.44l-15.8-7.97c-2.24-1.13-3.4-3.65-2.8-6.09l4.22-17.19c.33-1.34-1.32-2.26-2.29-1.28l-12.47,12.56c-1.77,1.78-4.53,2.1-6.66.78l-15.04-9.32c-1.17-.73-2.56.55-1.93,1.78l8.09,15.74c1.15,2.23.6,4.95-1.31,6.57l-13.51,11.42c-1.05.89-.27,2.6,1.1,2.38l17.47-2.83c2.47-.4,4.9.96,5.85,3.28l6.69,16.38c.52,1.28,2.39,1.06,2.6-.31l2.7-17.49c.38-2.48,2.42-4.36,4.92-4.55l17.65-1.3c1.38-.1,1.74-1.95.51-2.57Z"/>
  </g>
</svg>